<svg width="354" height="111" viewBox="0 0 354 111" fill="none" xmlns="http://www.w3.org/2000/svg">
<path d="M123.248 65.9692C123.845 67.8052 124.732 69.2522 125.908 70.3132C127.083 71.3722 128.375 71.9022 129.785 71.9022C131.622 71.9022 133.523 71.0792 135.489 69.4302C136.997 68.1652 138.44 66.6742 139.823 64.9672C139.995 65.3812 140.17 65.7912 140.361 66.1802C142.241 69.9942 145.209 71.9022 149.269 71.9022C152.089 71.9022 154.611 70.8892 156.832 68.8652C158.114 67.6892 158.755 66.1112 158.755 64.1342C158.755 63.2392 158.595 62.4742 158.276 61.8392C157.956 61.2022 157.539 60.8842 157.026 60.8842C156.554 60.8842 156.086 61.1202 155.616 61.5912C154.847 62.3432 154.003 62.9562 153.085 63.4272C152.165 63.8992 151.343 64.1342 150.617 64.1342C149.291 64.1342 148.246 63.7102 147.475 62.8632C146.706 62.0152 146.151 60.6032 145.809 58.6252C150.551 52.4092 154.355 46.1712 157.217 39.9082C160.079 33.6442 161.511 27.9952 161.511 22.9562C161.511 19.0962 160.904 16.2112 159.685 14.3052C158.467 12.3972 156.812 11.4442 154.718 11.4452C151.171 11.4452 148.094 13.5982 145.489 17.9082C142.881 22.2162 140.906 27.4682 139.559 33.6582C138.213 39.8502 137.539 45.6062 137.539 50.9272C137.539 53.4182 137.688 55.7062 137.977 57.8072C136.375 59.8742 135.076 61.4092 134.08 62.4052C132.926 63.5582 131.943 64.1342 131.132 64.1342C130.619 64.1342 130.202 63.9222 129.882 63.4982C129.563 63.0742 129.403 62.5112 129.403 61.8042C129.403 59.6852 129.894 55.9182 130.877 50.5022C131.518 46.7832 131.838 44.4292 131.838 43.4392C131.838 41.7932 130.791 40.9682 128.698 40.9682C127.715 40.9682 126.775 41.0622 125.878 41.2502C125.663 40.2152 125.398 39.4972 125.077 39.0972C124.755 38.6982 124.124 38.4962 123.184 38.4962C120.237 38.4962 117.449 39.5182 114.822 41.5682C112.195 43.6172 110.089 46.3252 108.509 49.6902C108.156 50.4402 107.85 51.2022 107.576 51.9722C107.548 51.9762 107.514 51.9802 107.486 51.9842C105.392 52.3132 103.491 52.4772 101.782 52.4772C101.269 52.4772 100.821 52.4552 100.436 52.4082C99.24 52.3132 98.213 52.2662 97.36 52.2662C96.888 52.2662 96.355 52.6202 95.756 53.3262C95.157 54.0322 94.655 54.8562 94.25 55.7982C93.843 56.7412 93.662 57.5192 93.705 58.1292C94.474 61.9432 95.083 65.5692 95.531 69.0062C95.98 72.4432 96.204 75.9982 96.204 79.6712C96.204 84.5672 95.563 87.0172 94.282 87.0172C93.596 87.0172 93.106 84.4612 92.807 79.3532C92.506 74.2452 92.359 69.2672 92.359 64.4152C92.359 60.9332 92.572 56.8822 93 52.2672C105.006 39.2262 111.01 27.1702 111.01 16.1052C111.01 12.7612 110.445 10.1012 109.313 8.12423C108.179 6.14623 106.61 5.15723 104.602 5.15723C100.883 5.15723 97.477 8.20623 94.378 14.3042C91.279 20.4022 88.843 28.1012 87.071 37.4002C85.666 44.7682 84.828 52.0512 84.536 59.2562C83.449 60.6052 82.529 61.6572 81.782 62.4042C80.628 63.5572 79.645 64.1332 78.834 64.1332C78.321 64.1332 77.904 63.9212 77.584 63.4972C77.264 63.0732 77.105 62.5102 77.105 61.8032C77.105 59.6842 77.595 55.9172 78.579 50.5012C79.22 46.7822 79.54 44.4282 79.54 43.4382C79.54 41.7922 78.493 40.9672 76.4 40.9672C75.417 40.9672 74.476 41.0612 73.58 41.2492C73.365 40.2142 73.099 39.4962 72.779 39.0962C72.457 38.6972 71.826 38.4952 70.886 38.4952C67.939 38.4952 65.151 39.5172 62.524 41.5672C59.897 43.6162 57.791 46.3242 56.211 49.6892C54.63 53.0562 53.84 56.6232 53.84 60.3902C53.84 60.6482 53.854 60.8952 53.862 61.1452C53.537 61.4602 53.228 61.7402 52.939 61.9762C51.7 62.9902 50.396 63.4952 49.03 63.4952C47.492 63.4952 46.135 62.8362 44.961 61.5172C43.785 60.1992 42.599 58.1252 41.403 55.3002C40.292 52.6642 39.18 50.6632 38.071 49.2982C36.959 47.9332 35.379 46.9442 33.328 46.3312C36.575 45.3902 39.331 43.9532 41.596 42.0222C43.862 40.0922 45.559 37.8682 46.693 35.3482C47.825 32.8292 48.39 30.2522 48.39 27.6142C48.39 24.6002 47.717 21.8932 46.371 19.4922C45.025 17.0912 42.962 15.2082 40.185 13.8432C37.408 12.4782 33.968 11.7942 29.867 11.7942C23.971 11.7942 18.769 13.3142 14.261 16.3512C9.753 19.3882 6.249 23.7782 3.75 29.5222C1.25 35.2662 0 42.0942 0 50.0042C0 54.2422 0.599 58.0212 1.795 61.3402C2.991 64.6602 4.691 67.2502 6.891 69.1112C9.091 70.9722 11.623 71.9012 14.487 71.9012C17.091 71.9012 19.038 71.1372 20.319 69.6062C21.6 68.0772 22.454 65.8752 22.882 63.0022C22.968 62.4852 23.181 61.0502 23.525 58.6942C24.336 53.4672 24.828 50.3602 24.999 49.3712C26.152 49.5132 27.124 49.9132 27.915 50.5722C28.705 51.2312 29.506 52.3262 30.318 53.8562C31.13 55.3872 32.241 57.7522 33.651 60.9542C35.403 64.9572 37.251 67.7832 39.195 69.4312C41.138 71.0792 43.5 71.9032 46.277 71.9032C49.139 71.9032 51.618 71.1612 53.712 69.6772C54.392 69.1962 55.069 68.6422 55.744 68.0292C55.893 68.2662 56.047 68.5012 56.213 68.7242C57.793 70.8432 59.909 71.9032 62.556 71.9032C65.931 71.9032 68.731 69.9242 70.952 65.9702C71.549 67.8062 72.435 69.2532 73.612 70.3142C74.787 71.3732 76.079 71.9032 77.489 71.9032C79.326 71.9032 81.226 71.0802 83.193 69.4312C83.616 69.0772 84.031 68.6962 84.444 68.3072C84.582 76.3182 85.222 82.4392 86.369 86.6622C87.671 91.4662 89.862 93.8672 92.937 93.8672C95.373 93.8672 97.337 92.5252 98.833 89.8412C100.328 87.1572 101.076 83.2732 101.076 78.1872C101.076 75.8802 100.893 72.9492 100.531 69.3942C100.168 65.8412 99.709 62.6032 99.153 59.6832C101.076 60.1082 102.55 60.3202 103.576 60.3202C104.517 60.3202 105.371 60.2582 106.145 60.1412C106.144 60.2242 106.138 60.3062 106.138 60.3902C106.138 63.8282 106.928 66.6052 108.509 68.7242C110.089 70.8432 112.205 71.9032 114.852 71.9032C118.227 71.9022 121.027 69.9232 123.248 65.9692ZM146.802 34.9612C147.72 30.0652 148.811 26.0512 150.072 22.9192C151.332 19.7882 152.475 18.2232 153.501 18.2232C154.697 18.2232 155.296 19.8712 155.296 23.1662C155.296 30.8422 151.985 39.7192 145.361 49.7942C145.403 44.8032 145.883 39.8602 146.802 34.9612ZM97.038 27.8642C98.148 23.1322 99.269 19.3302 100.402 16.4572C101.534 13.5862 102.485 12.1492 103.254 12.1492C104.322 12.1492 104.858 13.5862 104.858 16.4582C104.813 20.5092 103.875 24.8512 102.038 29.4892C100.2 34.1272 97.572 38.5892 94.154 42.8732C94.965 37.6002 95.926 32.5962 97.038 27.8642ZM26.217 41.9532L28.14 30.2282C28.182 29.9452 28.204 29.5452 28.204 29.0272C28.204 26.6262 26.987 25.4252 24.551 25.4252C21.517 25.4252 19.722 26.9552 19.167 30.0152C18.568 33.3612 17.927 37.3392 17.244 41.9532H15.64C14.786 41.9532 14.028 42.2832 13.366 42.9422C12.703 43.6012 12.373 44.4962 12.373 45.6262C12.373 46.5682 12.64 47.4162 13.174 48.1692C13.708 48.9242 14.701 49.2992 16.154 49.2992L14.424 59.8952C14.21 61.2602 13.921 62.2492 13.559 62.8612C13.197 63.4732 12.737 63.7792 12.181 63.7792C11.454 63.7792 10.686 63.2382 9.873 62.1542C9.06 61.0722 8.377 59.4472 7.822 57.2812C7.265 55.1152 6.989 52.5252 6.989 49.5102C6.989 43.0612 7.864 37.5862 9.617 33.0892C11.368 28.5942 13.815 25.2032 16.956 22.9182C20.095 20.6352 23.759 19.4932 27.947 19.4932C31.493 19.4932 34.184 20.3402 36.023 22.0352C37.859 23.7302 38.779 26.0602 38.779 29.0272C38.779 31.4762 38.212 33.6662 37.08 35.5952C35.948 37.5282 34.43 39.0332 32.53 40.1162C30.628 41.2012 28.526 41.8132 26.217 41.9532ZM69.414 58.0572C69.03 60.0822 68.41 61.7072 67.556 62.9322C66.702 64.1572 65.803 64.7682 64.864 64.7682C63.924 64.7682 63.186 64.4142 62.653 63.7082C62.118 63.0012 61.851 61.9192 61.851 60.4592C61.851 57.8222 62.3 55.3272 63.198 52.9732C64.094 50.6192 65.301 48.7232 66.819 47.2862C68.335 45.8492 69.992 45.1082 71.786 45.0602L69.414 58.0572ZM117.162 64.7682C116.222 64.7682 115.485 64.4142 114.951 63.7082C114.416 63.0012 114.15 61.9192 114.15 60.4592C114.15 57.8222 114.598 55.3272 115.496 52.9732C116.392 50.6192 117.599 48.7232 119.117 47.2862C120.633 45.8492 122.29 45.1082 124.084 45.0602L121.713 58.0562C121.329 60.0812 120.709 61.7062 119.856 62.9312C118.998 64.1562 118.101 64.7682 117.162 64.7682Z" fill="#FDC100"/>
<path d="M170.165 5.01398C170.165 3.64998 169.353 2.47298 167.729 1.48398C166.105 0.494978 163.541 -2.19254e-05 160.039 0.000978075C155.723 0.000978075 151.215 1.27298 146.516 3.81498C145.02 4.61598 143.953 5.40398 143.311 6.17998C142.67 6.95698 142.35 7.86498 142.35 8.89998C142.35 9.70098 142.595 10.395 143.086 10.983C143.577 11.573 144.274 11.866 145.169 11.866C145.811 11.866 146.419 11.749 146.996 11.512C147.573 11.279 148.416 10.854 149.527 10.241C151.279 9.29898 152.881 8.55798 154.335 8.01498C155.787 7.47398 157.517 7.20198 159.526 7.20198C161.149 7.20198 162.815 7.43898 164.525 7.90898C165.506 8.14498 166.254 8.26298 166.767 8.26298C167.793 8.26298 168.616 7.97998 169.236 7.41398C169.855 6.84998 170.165 6.05098 170.165 5.01398Z" fill="#FDC100"/>
<path d="M246.116 33.9731C247.953 33.9731 249.427 33.4191 250.538 32.3131C251.649 31.2071 252.205 29.7111 252.205 27.8281C252.205 26.2741 251.712 25.0741 250.73 24.2251C249.746 23.3781 248.464 22.9541 246.883 22.9541C245.131 22.9541 243.668 23.5081 242.493 24.6141C241.317 25.7201 240.73 27.0971 240.73 28.7461C240.73 30.3951 241.178 31.6781 242.076 32.5961C242.973 33.5141 244.32 33.9731 246.116 33.9731Z" fill="#FDC100"/>
<path d="M316.165 11.865C316.549 11.865 316.975 11.806 317.446 11.689C317.916 11.571 318.45 11.371 319.049 11.087C319.648 10.806 320.053 10.617 320.267 10.523C322.148 9.582 324.048 8.828 325.971 8.263C327.895 7.698 330.265 7.414 333.085 7.414C334.11 7.414 335.52 7.58 337.315 7.909C338.296 8.145 339.086 8.263 339.685 8.263C340.711 8.263 341.534 7.98 342.154 7.414C342.772 6.849 343.083 6.05 343.083 5.013C343.083 3.649 342.271 2.472 340.647 1.483C339.023 0.494001 336.459 -0.000998488 332.957 1.5121e-06C330.264 1.5121e-06 327.541 0.354002 324.785 1.061C322.03 1.766 319.603 2.684 317.511 3.815C316.015 4.616 314.948 5.404 314.306 6.18C313.665 6.957 313.345 7.865 313.345 8.9C313.345 9.701 313.59 10.395 314.082 10.983C314.573 11.572 315.268 11.865 316.165 11.865Z" fill="#FDC100"/>
<path d="M352.376 46.1204C351.48 43.8604 350.133 42.0364 348.339 40.6464C346.544 39.2574 344.386 38.5634 341.865 38.5634C339.258 38.5634 336.908 39.3514 334.815 40.9294C332.719 42.5074 331.065 44.6964 329.846 47.4964C328.628 50.2984 328.021 53.4894 328.021 57.0674C328.021 58.0004 328.1 58.9024 328.216 59.7924C327.221 60.9404 326.341 61.8404 325.584 62.4724C324.26 63.5784 322.721 64.1324 320.97 64.1324C319.86 64.1324 318.962 63.7084 318.279 62.8614C317.594 62.0134 317.103 60.6014 316.804 58.6234C321.547 52.3624 325.349 46.1114 328.212 39.8714C331.074 33.6334 332.506 27.9944 332.506 22.9554C332.506 19.0964 331.899 16.2104 330.68 14.3034C329.462 12.3974 327.806 11.4434 325.713 11.4434C322.166 11.4434 319.089 13.5964 316.484 17.9064C313.876 22.2144 311.901 27.4654 310.554 33.6564C309.208 39.8484 308.535 45.6044 308.535 50.9254C308.535 53.4414 308.685 55.7504 308.974 57.8734C307.224 60.0174 305.293 61.6584 303.182 62.7904C300.724 64.1094 298.301 64.7694 295.909 64.7694C293.73 64.7694 292.084 64.3454 290.972 63.4984C289.862 62.6504 289.306 61.5684 289.306 60.2494C289.306 58.1784 290.589 56.0944 293.153 53.9984C295.716 51.9044 298.942 49.9374 302.831 48.1024C304.198 47.4444 305.202 46.6904 305.844 45.8414C306.486 44.9944 306.805 43.8174 306.805 42.3114C306.805 40.9464 306.58 39.9344 306.132 39.2744C305.684 38.6154 305.117 38.2854 304.434 38.2854C304.007 38.2854 303.484 38.3794 302.865 38.5674C302.245 38.7554 301.828 38.8744 301.615 38.9204C300.418 39.2974 299.606 39.4854 299.178 39.4854C297.94 39.4854 296.411 39.4144 294.596 39.2724C292.78 39.1304 291.531 39.0374 290.846 38.9904C287.555 38.6624 284.928 38.4964 282.963 38.4964C282.108 38.4964 281.434 38.9334 280.943 39.8044C280.452 40.6744 280.207 41.6744 280.207 42.8044C280.207 43.8884 280.452 44.8184 280.943 45.5954C281.433 46.3714 282.15 46.7374 283.089 46.6894L293.6 46.4074C289.371 48.6214 286.122 50.9284 283.859 53.3294C282.227 55.0594 281.193 56.9774 280.737 59.0754C278.65 61.5984 276.783 63.2244 275.142 63.9254C275.227 63.0774 275.27 62.4184 275.27 61.9474C275.27 60.2994 274.917 58.7804 274.212 57.3904C273.507 56.0024 272.47 54.3194 271.105 52.3404C270.165 51.0694 269.469 50.0114 269.022 49.1624C268.573 48.3134 268.347 47.5384 268.347 46.8314C268.347 45.6554 268.732 44.2184 269.501 42.5224C269.799 41.9124 270.034 41.2984 270.206 40.6864C270.376 40.0764 270.462 39.6274 270.462 39.3444C270.462 38.8264 270.228 38.4504 269.757 38.2144C269.286 37.9794 268.453 37.8614 267.258 37.8614C264.695 37.8614 263.007 38.8964 262.195 40.9684C261.254 43.4174 260.293 45.7824 259.311 48.0664C258.328 50.3514 257.473 52.1754 256.747 53.5414C255.587 55.5524 253.872 58.1044 251.626 61.1784C251.23 61.6284 250.864 62.0304 250.532 62.3674C249.378 63.5454 248.417 64.1334 247.648 64.1334C246.835 64.1334 246.259 63.7584 245.918 63.0034C245.575 62.2514 245.405 61.1674 245.405 59.7544C245.405 57.9184 245.918 54.4114 246.943 49.2314C247.755 44.9474 248.161 42.2154 248.161 41.0384C248.161 39.4384 247.071 38.6384 244.892 38.6384C243.482 38.6384 242.456 38.9204 241.816 39.4864C241.173 40.0504 240.662 41.0874 240.277 42.5934C239.507 45.4644 238.877 48.5604 238.385 51.8804C237.977 54.6464 237.748 56.9694 237.68 58.9014C236.539 60.2564 235.543 61.2884 234.699 61.9774C233.46 62.9924 232.156 63.4974 230.79 63.4974C229.251 63.4974 227.905 62.8514 226.752 61.5564C225.598 60.2614 224.358 58.0604 223.034 54.9524C222.094 52.7404 221.261 51.0104 220.535 49.7624C219.807 48.5144 218.922 47.4674 217.875 46.6184C216.828 45.7714 215.493 45.1354 213.869 44.7114C218.569 43.2054 222.906 40.1684 226.88 35.6004C230.855 31.0344 233.908 24.8664 236.045 17.0964C236.216 16.3424 236.302 15.8014 236.302 15.4714C236.302 14.3894 235.97 13.5534 235.31 12.9634C234.647 12.3754 233.716 12.0804 232.522 12.0804C231.112 12.0804 229.947 12.4344 229.029 13.1414C228.109 13.8464 227.459 14.8604 227.074 16.1784C224.98 23.3344 222.363 28.9964 219.221 33.1634C216.081 37.3314 212.011 39.6974 207.012 40.2624L209.511 21.2624C211.52 21.2624 212.525 19.9674 212.525 17.3774C212.525 15.4474 211.477 14.1284 209.383 13.4224C207.46 12.7644 205.698 12.3174 204.096 12.0804C202.494 11.8464 200.732 11.7264 198.808 11.7264C194.408 11.7264 190.71 12.4684 187.72 13.9524C184.73 15.4364 182.497 17.4024 181.024 19.8494C179.548 22.2984 178.813 25.0054 178.813 27.9724C178.813 30.8454 179.454 33.5304 180.735 36.0254C181.377 37.3434 182.38 38.0034 183.748 38.0034C184.815 38.0034 185.788 37.6144 186.664 36.8374C187.54 36.0614 187.978 35.1554 187.978 34.1184C187.978 33.6484 187.892 33.2244 187.72 32.8474C187.335 31.9524 187.025 31.1404 186.791 30.4094C186.555 29.6804 186.438 28.7254 186.438 27.5504C186.438 24.9604 187.376 22.9704 189.256 21.5814C191.136 20.1934 193.892 19.4984 197.526 19.4984C198.508 19.4984 199.554 19.5684 200.666 19.7094L198.68 35.6014C198.552 36.4974 198.337 38.0974 198.039 40.4054H195.924C195.07 40.4054 194.355 40.7714 193.778 41.5004C193.202 42.2304 192.913 43.2074 192.913 44.4324C192.913 45.5164 193.19 46.3634 193.746 46.9754C194.302 47.5864 195.071 47.8934 196.054 47.8934H197.079L196.182 54.6024C195.669 58.1824 194.804 60.8314 193.586 62.5494C192.368 64.2674 190.904 65.1264 189.196 65.1264C187.7 65.1264 186.45 64.5844 185.446 63.5014C184.442 62.4194 183.277 60.5124 181.953 57.7804C181.611 57.0274 181.249 56.4984 180.864 56.1914C180.479 55.8844 180.009 55.7324 179.454 55.7324C178.513 55.7324 177.744 56.2514 177.146 57.2864C176.547 58.3224 176.249 59.5454 176.249 60.9584C176.249 61.9474 176.398 62.8654 176.698 63.7134C177.594 66.1624 179.186 68.1764 181.471 69.7524C183.757 71.3304 186.375 72.1184 189.324 72.1184C193.852 72.1184 197.41 70.6354 199.995 67.6684C202.58 64.7014 204.322 59.8524 205.219 53.1184L205.924 47.8904C207.163 48.0334 208.189 48.4204 209 49.0564C209.813 49.6934 210.635 50.7764 211.468 52.3064C212.301 53.8364 213.36 56.1554 214.641 59.2634C216.393 63.5954 218.273 66.7844 220.282 68.8324C222.29 70.8804 224.875 71.9044 228.038 71.9044C230.9 71.9044 233.378 71.1624 235.473 69.6784C236.557 68.9104 237.634 67.9734 238.706 66.8704C238.945 67.5104 239.224 68.1054 239.543 68.6544C240.803 70.8204 242.822 71.9034 245.598 71.9024C249.271 71.9024 253.225 69.0544 257.454 63.3554C257.67 63.0804 257.852 62.7694 258.012 62.4344C258.24 62.1274 258.485 61.8334 258.706 61.5214C260.008 59.6854 261.323 57.3784 262.647 54.5994C263.246 55.3534 263.885 56.2364 264.57 57.2474C265.253 58.2614 265.82 59.3084 266.268 60.3904C266.716 61.4744 266.961 62.6274 267.004 63.8514C266.619 63.8064 266.053 63.7224 265.306 63.6054C264.558 63.4884 263.907 63.4274 263.352 63.4274C261.771 63.4274 260.575 63.8754 259.762 64.7694C258.949 65.6654 258.544 66.7244 258.544 67.9484C258.544 69.3614 259.131 70.6334 260.307 71.7614C261.483 72.8894 263.18 73.4564 265.399 73.4574C267.749 73.4574 269.779 72.6564 271.488 71.0564C274.349 70.9614 276.754 70.3844 278.699 69.3264C279.746 68.7564 280.822 67.9054 281.925 66.7954C282.009 66.9314 282.072 67.0734 282.162 67.2064C283.294 68.8784 284.928 70.1974 287.065 71.1614C289.201 72.1264 291.721 72.6094 294.628 72.6094C298.345 72.6094 301.689 71.7844 304.658 70.1364C307.009 68.8334 309.052 67.1404 310.8 65.0694C310.949 65.4344 311.097 65.8004 311.26 66.1464C313.075 69.9854 315.864 71.9034 319.624 71.9034C322.358 71.9034 324.804 71.1034 326.962 69.5024C328.16 68.6134 329.305 67.5714 330.404 66.4054C331.201 67.7354 332.178 68.8854 333.372 69.8194C335.143 71.2094 337.291 71.9034 339.814 71.9014C342.377 71.9014 344.716 71.1134 346.832 69.5354C348.947 67.9594 350.624 65.7694 351.863 62.9674C353.102 60.1674 353.72 56.9774 353.72 53.3974C353.722 50.8074 353.274 48.3814 352.376 46.1204ZM317.798 34.9614C318.717 30.0654 319.806 26.0514 321.068 22.9194C322.328 19.7884 323.47 18.2234 324.498 18.2234C325.693 18.2234 326.292 19.8714 326.292 23.1664C326.292 30.8424 322.98 39.7194 316.358 49.7944C316.4 44.8034 316.879 39.8604 317.798 34.9614ZM344.204 61.6594C343.2 63.4024 341.971 64.2734 340.52 64.2734C339.238 64.2734 338.168 63.6364 337.315 62.3664C336.46 61.0954 336.034 59.1174 336.034 56.4334C336.034 53.0414 336.535 50.4894 337.54 48.7694C338.542 47.0504 339.815 46.1914 341.353 46.1914C342.547 46.1914 343.574 46.8514 344.428 48.1694C345.282 49.4884 345.71 51.4424 345.71 54.0314C345.711 57.3754 345.208 59.9174 344.204 61.6594Z" fill="#FDC100"/>
<path d="M117.75 90.0546H123.115H123.116V105.34H124.729V90.0546H130.092V88.5176H117.75V90.0546Z" fill="#FDC100"/>
<path d="M133.511 95.1735V92.6985H132.03V105.34H133.579V98.8995C133.579 95.9195 135.04 94.2375 137.438 94.2375C137.545 94.2375 137.676 94.2615 137.807 94.2615V92.6035C135.693 92.6035 134.232 93.4915 133.511 95.1735Z" fill="#FDC100"/>
<path d="M144.936 92.6016C141.708 92.6016 139.332 95.2696 139.332 99.0196C139.332 102.77 141.774 105.46 145.35 105.46C147.162 105.46 148.753 104.739 149.778 103.393L148.906 102.289C148.033 103.393 146.791 103.947 145.394 103.947C142.886 103.947 141.055 102.193 140.88 99.5496H150.475C150.475 99.3576 150.497 99.1646 150.497 99.0206C150.496 95.2226 148.163 92.6016 144.936 92.6016ZM140.879 98.2756C141.076 95.7986 142.71 94.0696 144.935 94.0696C147.181 94.0696 148.817 95.7986 149.013 98.2756H140.879Z" fill="#FDC100"/>
<path d="M159.496 92.6035C157.512 92.6035 155.964 93.4925 155.135 95.0305V92.6995H153.654V105.341H155.202V98.7075C155.202 95.8235 156.751 94.1415 159.215 94.1415C161.394 94.1415 162.66 95.5125 162.66 98.1805V105.341H164.208V98.0105C164.207 94.3805 162.288 92.6035 159.496 92.6035Z" fill="#FDC100"/>
<path d="M172.903 92.6016C169.675 92.6016 167.299 95.2696 167.299 99.0196C167.299 102.77 169.742 105.46 173.319 105.46C175.129 105.46 176.72 104.739 177.745 103.393L176.873 102.289C176.001 103.393 174.758 103.947 173.362 103.947C170.855 103.947 169.023 102.193 168.847 99.5496H178.443C178.443 99.3576 178.464 99.1646 178.464 99.0206C178.463 95.2226 176.13 92.6016 172.903 92.6016ZM168.846 98.2756C169.042 95.7986 170.678 94.0696 172.903 94.0696C175.149 94.0696 176.785 95.7986 176.981 98.2756H168.846Z" fill="#FDC100"/>
<path d="M183.104 95.1735V92.6985H181.621V105.34H183.17V98.8995C183.17 95.9195 184.631 94.2375 187.029 94.2375C187.137 94.2375 187.268 94.2615 187.399 94.2615V92.6035C185.285 92.6035 183.824 93.4915 183.104 95.1735Z" fill="#FDC100"/>
<path d="M202.114 88.5176H196.401V105.34H198.014V100.029H202.114C205.996 100.029 208.349 97.8656 208.349 94.2846C208.349 90.6796 205.996 88.5176 202.114 88.5176ZM202.071 98.4666H198.014V90.0566H202.071C205.124 90.0566 206.737 91.5936 206.737 94.2856C206.737 96.9296 205.123 98.4666 202.071 98.4666Z" fill="#FDC100"/>
<path d="M215.889 92.6016C212.662 92.6016 210.285 95.2696 210.285 99.0196C210.285 102.77 212.728 105.46 216.304 105.46C218.115 105.46 219.706 104.739 220.731 103.393L219.859 102.289C218.987 103.393 217.744 103.947 216.347 103.947C213.84 103.947 212.008 102.193 211.833 99.5496H221.428C221.428 99.3576 221.45 99.1646 221.45 99.0206C221.451 95.2226 219.118 92.6016 215.889 92.6016ZM211.833 98.2756C212.03 95.7986 213.665 94.0696 215.889 94.0696C218.135 94.0696 219.772 95.7986 219.967 98.2756H211.833Z" fill="#FDC100"/>
<path d="M226.09 95.1735V92.6985H224.608V105.34H226.157V98.8995C226.157 95.9195 227.618 94.2375 230.015 94.2375C230.123 94.2375 230.254 94.2615 230.385 94.2615V92.6035C228.272 92.6035 226.811 93.4915 226.09 95.1735Z" fill="#FDC100"/>
<path d="M233.631 96.1586C233.631 94.9576 234.547 94.0676 236.618 94.0676C237.796 94.0676 238.995 94.3806 239.998 95.1496L240.674 93.7796C239.715 93.0576 238.1 92.6006 236.618 92.6006C233.696 92.6006 232.083 94.1396 232.083 96.2056C232.083 101.205 239.52 98.6096 239.52 101.902C239.52 103.152 238.625 103.969 236.445 103.969C234.832 103.969 233.284 103.344 232.368 102.551L231.671 103.897C232.609 104.786 234.441 105.459 236.337 105.459C239.324 105.459 241.068 104.041 241.068 101.855C241.068 96.9996 233.631 99.5716 233.631 96.1586Z" fill="#FDC100"/>
<path d="M248.61 92.6016C245.251 92.6016 242.765 95.2696 242.765 99.0196C242.765 102.77 245.251 105.46 248.61 105.46C251.967 105.46 254.431 102.77 254.431 99.0196C254.431 95.2696 251.968 92.6016 248.61 92.6016ZM248.61 103.947C246.168 103.947 244.337 101.975 244.337 99.0196C244.337 96.0646 246.168 94.0936 248.61 94.0936C251.051 94.0936 252.862 96.0636 252.862 99.0196C252.862 101.975 251.051 103.947 248.61 103.947Z" fill="#FDC100"/>
<path d="M263.431 92.6035C261.449 92.6035 259.9 93.4925 259.072 95.0305V92.6995H257.589V105.341H259.138V98.7075C259.138 95.8235 260.687 94.1415 263.151 94.1415C265.331 94.1415 266.595 95.5125 266.595 98.1805V105.341H268.143V98.0105C268.142 94.3805 266.223 92.6035 263.431 92.6035Z" fill="#FDC100"/>
<path d="M276.361 92.6035C274.55 92.6035 272.85 93.2285 271.695 94.3105L272.391 95.5825C273.329 94.6695 274.725 94.0935 276.207 94.0935C278.344 94.0935 279.455 95.2695 279.455 97.4335V98.2025H275.814C272.521 98.2025 271.386 99.8365 271.386 101.784C271.386 103.972 272.979 105.461 275.574 105.461C277.47 105.461 278.823 104.668 279.52 103.37V105.341H281.002V97.5055C281.003 94.2375 279.325 92.6035 276.361 92.6035ZM279.455 101.543C278.844 103.201 277.558 104.115 275.814 104.115C273.982 104.115 272.914 103.202 272.914 101.736C272.914 100.438 273.633 99.4755 275.857 99.4755H279.455V101.543Z" fill="#FDC100"/>
<path d="M286.756 87.5078H285.207V105.34H286.756V87.5078Z" fill="#FDC100"/>
<path d="M296.913 92.6035C294.93 92.6035 293.381 93.4925 292.553 95.0305V92.6995H291.071V105.341H292.62V98.7075C292.62 95.8235 294.168 94.1415 296.632 94.1415C298.812 94.1415 300.077 95.5125 300.077 98.1805V105.341H301.625V98.0105C301.624 94.3805 299.706 92.6035 296.913 92.6035Z" fill="#FDC100"/>
<path d="M309.407 103.444L305.09 92.7012H303.476L308.6 105.318L308.099 106.544C307.446 108.131 306.747 108.659 305.722 108.659C304.894 108.659 304.196 108.323 303.629 107.698L302.909 108.971C303.606 109.74 304.632 110.123 305.7 110.123C307.334 110.123 308.555 109.33 309.514 106.853L315.249 92.7002H313.723L309.407 103.444Z" fill="#FDC100"/>
<path d="M340.505 93.9609L341.46 89.4179C342.012 86.8069 340.341 84.2419 337.729 83.6909C337.402 83.6209 337.068 83.5869 336.732 83.5869H328.908C326.239 83.5869 324.074 85.7509 324.074 88.4199C324.074 88.7559 324.109 89.0879 324.178 89.4159L325.134 93.9589C321.08 98.2039 321.236 104.934 325.482 108.987C325.9 109.386 326.35 109.752 326.832 110.08V110.083C326.906 110.133 326.992 110.157 327.081 110.157H338.56C338.651 110.157 338.736 110.133 338.809 110.083C343.66 106.773 344.908 100.16 341.599 95.3109C341.27 94.8319 340.907 94.3809 340.505 93.9609ZM325.042 89.2349C324.796 88.0699 325.088 86.8569 325.84 85.9339C326.589 85.0079 327.718 84.4709 328.906 84.4729H336.73C338.912 84.4729 340.676 86.2419 340.676 88.4219C340.676 88.6939 340.65 88.9669 340.592 89.2349L340.476 89.7879H338.507L338.666 88.8239C338.868 87.6169 338.054 86.4759 336.847 86.2759C336.728 86.2549 336.607 86.2459 336.484 86.2459H329.152C327.927 86.2459 326.937 87.2369 326.937 88.4599C326.937 88.5819 326.948 88.7029 326.965 88.8239L327.127 89.7879H325.156L325.042 89.2349ZM337.813 88.4579C337.813 88.5309 337.808 88.6039 337.795 88.6759L337.298 91.6599C334.453 90.3639 331.184 90.3639 328.34 91.6599L327.842 88.6799C327.72 87.9549 328.207 87.2699 328.931 87.1479C329.004 87.1349 329.078 87.1289 329.154 87.1289H336.486C337.217 87.1309 337.815 87.7249 337.813 88.4579ZM339.707 108.194C339.311 108.59 338.879 108.951 338.42 109.274H327.216C322.813 106.18 321.751 100.104 324.846 95.6999C325.167 95.2419 325.531 94.8109 325.925 94.4139C326.031 94.3099 326.078 94.1579 326.048 94.0129L325.347 90.6749H327.278L327.566 92.4019C327.6 92.6159 327.787 92.7709 328.004 92.7709C328.076 92.7709 328.15 92.7539 328.212 92.7179C331.091 91.1749 334.55 91.1749 337.428 92.7179C337.644 92.8339 337.911 92.7539 338.03 92.5379C338.052 92.4949 338.069 92.4479 338.077 92.3999L338.364 90.6719H340.295L339.594 94.0079C339.564 94.1539 339.608 94.3069 339.713 94.4119C343.513 98.2189 343.513 104.387 339.707 108.194Z" fill="#FDC100"/>
</svg>
