<?xml version="1.0" encoding="utf-8"?>
<!-- Generator: Adobe Illustrator 16.0.0, SVG Export Plug-In . SVG Version: 6.00 Build 0)  -->
<!DOCTYPE svg PUBLIC "-//W3C//DTD SVG 1.1//EN" "http://www.w3.org/Graphics/SVG/1.1/DTD/svg11.dtd">
<svg version="1.1" id="Layer_1" xmlns="http://www.w3.org/2000/svg" xmlns:xlink="http://www.w3.org/1999/xlink" x="0px" y="0px"
	 width="354.25px" height="112.333px" viewBox="0 0 354.25 112.333" enable-background="new 0 0 354.25 112.333"
	 xml:space="preserve">
<g>
	<path d="M123.648,67.293c0.597,1.836,1.484,3.283,2.66,4.344c1.175,1.059,2.467,1.589,3.877,1.589c1.837,0,3.738-0.823,5.704-2.472
		c1.508-1.265,2.951-2.756,4.334-4.463c0.172,0.414,0.347,0.824,0.538,1.213c1.88,3.814,4.848,5.722,8.908,5.722
		c2.82,0,5.342-1.013,7.563-3.037c1.282-1.176,1.923-2.754,1.923-4.731c0-0.895-0.16-1.66-0.479-2.295
		c-0.32-0.637-0.737-0.955-1.25-0.955c-0.472,0-0.94,0.236-1.41,0.707c-0.769,0.752-1.613,1.365-2.531,1.836
		c-0.92,0.472-1.742,0.707-2.468,0.707c-1.326,0-2.371-0.424-3.142-1.271c-0.769-0.848-1.324-2.26-1.666-4.238
		c4.742-6.216,8.546-12.454,11.408-18.717c2.862-6.264,4.294-11.913,4.294-16.952c0-3.86-0.607-6.745-1.826-8.651
		c-1.218-1.908-2.873-2.861-4.967-2.86c-3.547,0-6.624,2.153-9.229,6.463c-2.608,4.308-4.583,9.56-5.93,15.75
		c-1.346,6.192-2.02,11.948-2.02,17.269c0,2.491,0.149,4.779,0.438,6.88c-1.602,2.067-2.901,3.602-3.897,4.598
		c-1.154,1.153-2.137,1.729-2.948,1.729c-0.513,0-0.93-0.212-1.25-0.636c-0.319-0.424-0.479-0.987-0.479-1.694
		c0-2.119,0.491-5.886,1.474-11.302c0.641-3.719,0.961-6.073,0.961-7.063c0-1.646-1.047-2.471-3.14-2.471
		c-0.983,0-1.923,0.094-2.82,0.282c-0.215-1.035-0.48-1.753-0.801-2.153c-0.322-0.399-0.953-0.601-1.893-0.601
		c-2.947,0-5.735,1.022-8.362,3.072c-2.627,2.049-4.733,4.757-6.313,8.122c-0.353,0.75-0.659,1.512-0.933,2.282
		c-0.028,0.004-0.062,0.008-0.09,0.012c-2.094,0.329-3.995,0.493-5.704,0.493c-0.513,0-0.961-0.022-1.346-0.069
		c-1.196-0.095-2.223-0.142-3.076-0.142c-0.472,0-1.005,0.354-1.604,1.06s-1.101,1.53-1.506,2.472
		c-0.407,0.943-0.588,1.721-0.545,2.331c0.769,3.814,1.378,7.44,1.826,10.877c0.449,3.437,0.673,6.992,0.673,10.665
		c0,4.896-0.641,7.346-1.922,7.346c-0.686,0-1.176-2.556-1.475-7.664c-0.301-5.108-0.448-10.086-0.448-14.938
		c0-3.482,0.213-7.533,0.641-12.148c12.006-13.041,18.01-25.097,18.01-36.162c0-3.344-0.565-6.004-1.697-7.981
		c-1.134-1.978-2.703-2.967-4.711-2.967c-3.719,0-7.125,3.049-10.224,9.147c-3.099,6.098-5.535,13.797-7.307,23.096
		c-1.405,7.368-2.243,14.651-2.535,21.856c-1.087,1.349-2.007,2.401-2.754,3.148c-1.154,1.153-2.137,1.729-2.948,1.729
		c-0.513,0-0.93-0.212-1.25-0.636s-0.479-0.987-0.479-1.694c0-2.119,0.49-5.886,1.474-11.302c0.641-3.719,0.961-6.073,0.961-7.063
		c0-1.646-1.047-2.471-3.14-2.471c-0.983,0-1.924,0.094-2.82,0.282c-0.215-1.035-0.481-1.753-0.801-2.153
		c-0.322-0.399-0.953-0.601-1.893-0.601c-2.947,0-5.735,1.022-8.362,3.072c-2.627,2.049-4.733,4.757-6.313,8.122
		c-1.581,3.367-2.371,6.934-2.371,10.701c0,0.258,0.014,0.505,0.022,0.755c-0.325,0.315-0.634,0.595-0.923,0.831
		c-1.239,1.014-2.543,1.519-3.909,1.519c-1.538,0-2.895-0.659-4.069-1.978c-1.176-1.318-2.362-3.392-3.558-6.217
		c-1.111-2.636-2.223-4.637-3.332-6.002c-1.112-1.365-2.692-2.354-4.743-2.967c3.247-0.941,6.003-2.378,8.268-4.309
		c2.266-1.93,3.963-4.154,5.097-6.674c1.132-2.519,1.697-5.096,1.697-7.734c0-3.014-0.673-5.721-2.019-8.122
		s-3.409-4.284-6.186-5.649c-2.777-1.365-6.217-2.049-10.318-2.049c-5.896,0-11.098,1.52-15.606,4.557S6.649,25.102,4.15,30.846
		C1.65,36.59,0.4,43.418,0.4,51.328c0,4.238,0.599,8.017,1.795,11.336c1.196,3.32,2.896,5.91,5.096,7.771s4.732,2.79,7.596,2.79
		c2.604,0,4.551-0.764,5.832-2.295c1.281-1.529,2.135-3.731,2.563-6.604c0.086-0.517,0.299-1.952,0.643-4.308
		c0.811-5.227,1.303-8.334,1.474-9.323c1.153,0.142,2.125,0.542,2.916,1.201c0.79,0.659,1.591,1.754,2.403,3.284
		c0.812,1.531,1.923,3.896,3.333,7.098c1.752,4.003,3.6,6.829,5.544,8.477c1.943,1.648,4.305,2.472,7.082,2.472
		c2.862,0,5.341-0.742,7.435-2.226c0.68-0.481,1.357-1.035,2.032-1.648c0.149,0.237,0.303,0.472,0.469,0.695
		c1.58,2.119,3.696,3.179,6.343,3.179c3.375,0,6.175-1.979,8.396-5.933c0.597,1.836,1.483,3.283,2.66,4.344
		c1.175,1.059,2.467,1.589,3.877,1.589c1.837,0,3.737-0.823,5.704-2.472c0.423-0.354,0.838-0.735,1.251-1.124
		c0.138,8.011,0.778,14.132,1.925,18.355c1.302,4.804,3.493,7.205,6.568,7.205c2.436,0,4.4-1.342,5.896-4.026
		c1.495-2.684,2.243-6.568,2.243-11.654c0-2.307-0.183-5.238-0.545-8.793c-0.363-3.553-0.822-6.791-1.378-9.711
		c1.923,0.425,3.397,0.637,4.423,0.637c0.941,0,1.795-0.062,2.569-0.179c-0.001,0.083-0.007,0.165-0.007,0.249
		c0,3.438,0.79,6.215,2.371,8.334c1.58,2.119,3.696,3.179,6.343,3.179C118.627,73.226,121.427,71.247,123.648,67.293z
		 M147.202,36.285c0.918-4.896,2.009-8.91,3.27-12.042c1.26-3.131,2.403-4.696,3.429-4.696c1.196,0,1.795,1.648,1.795,4.943
		c0,7.676-3.311,16.553-9.935,26.628C145.803,46.127,146.283,41.184,147.202,36.285z M97.438,29.188
		c1.11-4.732,2.231-8.534,3.364-11.407c1.132-2.871,2.083-4.308,2.852-4.308c1.068,0,1.604,1.437,1.604,4.309
		c-0.045,4.051-0.983,8.393-2.82,13.031c-1.838,4.638-4.466,9.1-7.884,13.384C95.365,38.924,96.326,33.92,97.438,29.188z
		 M26.617,43.277l1.923-11.725c0.042-0.283,0.064-0.683,0.064-1.201c0-2.401-1.217-3.602-3.653-3.602
		c-3.034,0-4.829,1.53-5.384,4.59c-0.599,3.346-1.24,7.324-1.923,11.938h-1.604c-0.854,0-1.612,0.33-2.274,0.989
		c-0.663,0.659-0.993,1.554-0.993,2.684c0,0.942,0.267,1.79,0.801,2.543c0.534,0.755,1.527,1.13,2.98,1.13l-1.73,10.596
		c-0.214,1.365-0.503,2.354-0.865,2.966c-0.362,0.612-0.822,0.918-1.378,0.918c-0.727,0-1.495-0.541-2.308-1.625
		c-0.813-1.082-1.496-2.707-2.051-4.873c-0.557-2.166-0.833-4.756-0.833-7.771c0-6.449,0.875-11.924,2.628-16.421
		c1.751-4.495,4.198-7.886,7.339-10.171c3.139-2.283,6.803-3.425,10.991-3.425c3.546,0,6.237,0.847,8.076,2.542
		c1.836,1.695,2.756,4.025,2.756,6.992c0,2.449-0.567,4.639-1.699,6.568c-1.132,1.933-2.65,3.438-4.55,4.521
		C31.028,42.525,28.926,43.137,26.617,43.277z M69.814,59.381c-0.384,2.025-1.004,3.65-1.858,4.875s-1.753,1.836-2.692,1.836
		c-0.94,0-1.678-0.354-2.211-1.06c-0.535-0.707-0.802-1.789-0.802-3.249c0-2.637,0.449-5.132,1.347-7.486
		c0.896-2.354,2.103-4.25,3.621-5.687c1.516-1.437,3.173-2.178,4.967-2.226L69.814,59.381z M117.562,66.092
		c-0.94,0-1.677-0.354-2.211-1.06c-0.535-0.707-0.801-1.789-0.801-3.249c0-2.637,0.448-5.132,1.346-7.486
		c0.896-2.354,2.103-4.25,3.621-5.687c1.516-1.437,3.173-2.178,4.967-2.226l-2.371,12.996c-0.384,2.025-1.004,3.65-1.857,4.875
		C119.398,65.48,118.501,66.092,117.562,66.092z"/>
	<path d="M170.565,6.338c0-1.364-0.812-2.541-2.436-3.53s-4.188-1.484-7.69-1.483c-4.316,0-8.824,1.272-13.523,3.814
		c-1.496,0.801-2.563,1.589-3.205,2.365c-0.641,0.777-0.961,1.685-0.961,2.72c0,0.801,0.245,1.495,0.736,2.083
		c0.491,0.59,1.188,0.883,2.083,0.883c0.642,0,1.25-0.117,1.827-0.354c0.577-0.233,1.42-0.658,2.531-1.271
		c1.752-0.942,3.354-1.683,4.808-2.226c1.452-0.541,3.182-0.813,5.191-0.813c1.623,0,3.289,0.237,4.999,0.707
		c0.981,0.236,1.729,0.354,2.242,0.354c1.026,0,1.849-0.283,2.469-0.849C170.255,8.174,170.565,7.375,170.565,6.338z"/>
	<path d="M246.516,35.297c1.837,0,3.311-0.554,4.422-1.66s1.667-2.602,1.667-4.485c0-1.554-0.493-2.754-1.475-3.603
		c-0.984-0.847-2.266-1.271-3.847-1.271c-1.752,0-3.215,0.554-4.39,1.66c-1.176,1.106-1.763,2.483-1.763,4.132
		s0.448,2.932,1.346,3.85C243.373,34.838,244.72,35.297,246.516,35.297z"/>
	<path d="M316.565,13.189c0.384,0,0.81-0.059,1.281-0.176c0.47-0.118,1.004-0.318,1.603-0.602c0.599-0.281,1.004-0.47,1.218-0.564
		c1.881-0.941,3.781-1.695,5.704-2.26c1.924-0.565,4.294-0.849,7.114-0.849c1.025,0,2.435,0.166,4.23,0.495
		c0.981,0.236,1.771,0.354,2.37,0.354c1.026,0,1.849-0.283,2.469-0.849c0.618-0.565,0.929-1.364,0.929-2.401
		c0-1.364-0.812-2.541-2.436-3.53s-4.188-1.484-7.69-1.483c-2.693,0-5.416,0.354-8.172,1.061c-2.755,0.705-5.182,1.623-7.274,2.754
		c-1.496,0.801-2.563,1.589-3.205,2.365c-0.641,0.777-0.961,1.685-0.961,2.72c0,0.801,0.245,1.495,0.737,2.083
		C314.973,12.896,315.668,13.189,316.565,13.189z"/>
	<path d="M352.776,47.444c-0.896-2.26-2.243-4.084-4.037-5.474c-1.795-1.389-3.953-2.083-6.474-2.083
		c-2.607,0-4.957,0.788-7.05,2.366c-2.096,1.578-3.75,3.767-4.969,6.567c-1.218,2.802-1.825,5.993-1.825,9.571
		c0,0.933,0.079,1.835,0.195,2.725c-0.995,1.148-1.875,2.048-2.632,2.68c-1.324,1.106-2.863,1.66-4.614,1.66
		c-1.11,0-2.008-0.424-2.691-1.271c-0.685-0.848-1.176-2.26-1.475-4.238c4.743-6.261,8.545-12.512,11.408-18.752
		c2.862-6.238,4.294-11.877,4.294-16.916c0-3.859-0.607-6.745-1.826-8.652c-1.218-1.906-2.874-2.86-4.967-2.86
		c-3.547,0-6.624,2.153-9.229,6.463c-2.608,4.308-4.583,9.559-5.93,15.75c-1.346,6.192-2.019,11.948-2.019,17.269
		c0,2.516,0.15,4.825,0.439,6.948c-1.75,2.144-3.681,3.785-5.792,4.917c-2.458,1.319-4.881,1.979-7.273,1.979
		c-2.179,0-3.825-0.424-4.937-1.271c-1.11-0.848-1.666-1.93-1.666-3.249c0-2.071,1.283-4.155,3.847-6.251
		c2.563-2.094,5.789-4.061,9.678-5.896c1.367-0.658,2.371-1.412,3.013-2.261c0.642-0.847,0.961-2.024,0.961-3.53
		c0-1.365-0.225-2.377-0.673-3.037c-0.448-0.659-1.015-0.989-1.698-0.989c-0.427,0-0.95,0.094-1.569,0.282
		c-0.62,0.188-1.037,0.307-1.25,0.353c-1.197,0.377-2.009,0.565-2.437,0.565c-1.238,0-2.767-0.071-4.582-0.213
		c-1.816-0.142-3.065-0.235-3.75-0.282c-3.291-0.328-5.918-0.494-7.883-0.494c-0.855,0-1.529,0.437-2.02,1.308
		c-0.491,0.87-0.736,1.87-0.736,3c0,1.084,0.245,2.014,0.736,2.791c0.49,0.776,1.207,1.142,2.146,1.094l10.511-0.282
		c-4.229,2.214-7.478,4.521-9.741,6.922c-1.632,1.73-2.666,3.648-3.122,5.746c-2.087,2.523-3.954,4.149-5.595,4.85
		c0.085-0.848,0.128-1.507,0.128-1.978c0-1.648-0.353-3.167-1.058-4.557c-0.705-1.388-1.742-3.071-3.107-5.05
		c-0.94-1.271-1.636-2.329-2.083-3.178c-0.449-0.849-0.675-1.624-0.675-2.331c0-1.176,0.385-2.613,1.154-4.309
		c0.298-0.61,0.533-1.224,0.705-1.836c0.17-0.61,0.256-1.059,0.256-1.342c0-0.518-0.234-0.894-0.705-1.13
		c-0.471-0.235-1.304-0.353-2.499-0.353c-2.563,0-4.251,1.035-5.063,3.107c-0.941,2.449-1.902,4.814-2.884,7.098
		c-0.983,2.285-1.838,4.109-2.564,5.475c-1.16,2.011-2.875,4.563-5.121,7.637c-0.396,0.45-0.762,0.852-1.094,1.189
		c-1.154,1.178-2.115,1.766-2.884,1.766c-0.813,0-1.389-0.375-1.73-1.13c-0.343-0.752-0.513-1.836-0.513-3.249
		c0-1.836,0.513-5.343,1.538-10.523c0.812-4.284,1.218-7.016,1.218-8.193c0-1.6-1.09-2.4-3.269-2.4c-1.41,0-2.436,0.282-3.076,0.848
		c-0.643,0.564-1.154,1.601-1.539,3.107c-0.77,2.871-1.4,5.967-1.892,9.287c-0.408,2.766-0.637,5.089-0.705,7.021
		c-1.141,1.355-2.137,2.387-2.981,3.076c-1.239,1.015-2.543,1.52-3.909,1.52c-1.539,0-2.885-0.646-4.038-1.941
		c-1.154-1.295-2.394-3.496-3.718-6.604c-0.94-2.212-1.773-3.942-2.499-5.19c-0.728-1.248-1.613-2.295-2.66-3.144
		c-1.047-0.847-2.382-1.483-4.006-1.907c4.7-1.506,9.037-4.543,13.011-9.111c3.975-4.566,7.028-10.734,9.165-18.504
		c0.171-0.754,0.257-1.295,0.257-1.625c0-1.082-0.332-1.918-0.992-2.508c-0.663-0.588-1.594-0.883-2.788-0.883
		c-1.41,0-2.575,0.354-3.493,1.061c-0.92,0.705-1.57,1.719-1.955,3.037c-2.094,7.156-4.711,12.818-7.853,16.985
		c-3.14,4.168-7.21,6.534-12.209,7.099l2.499-19c2.009,0,3.014-1.295,3.014-3.885c0-1.93-1.048-3.249-3.142-3.955
		c-1.923-0.658-3.685-1.105-5.287-1.342c-1.602-0.234-3.364-0.354-5.288-0.354c-4.4,0-8.098,0.742-11.088,2.226
		s-5.223,3.45-6.696,5.897c-1.476,2.449-2.211,5.156-2.211,8.123c0,2.873,0.641,5.558,1.922,8.053
		c0.642,1.318,1.645,1.978,3.013,1.978c1.067,0,2.04-0.389,2.916-1.166c0.876-0.776,1.314-1.682,1.314-2.719
		c0-0.47-0.086-0.894-0.258-1.271c-0.385-0.895-0.695-1.707-0.929-2.438c-0.236-0.729-0.353-1.684-0.353-2.859
		c0-2.59,0.938-4.58,2.818-5.969c1.88-1.388,4.636-2.083,8.27-2.083c0.982,0,2.028,0.07,3.14,0.211l-1.986,15.892
		c-0.128,0.896-0.343,2.496-0.641,4.804h-2.115c-0.854,0-1.569,0.366-2.146,1.095c-0.576,0.73-0.865,1.707-0.865,2.932
		c0,1.084,0.277,1.931,0.833,2.543c0.556,0.611,1.325,0.918,2.308,0.918h1.025l-0.897,6.709c-0.513,3.58-1.378,6.229-2.596,7.947
		s-2.682,2.577-4.39,2.577c-1.496,0-2.746-0.542-3.75-1.625c-1.004-1.082-2.169-2.989-3.493-5.721
		c-0.342-0.753-0.704-1.282-1.089-1.589s-0.855-0.459-1.41-0.459c-0.941,0-1.71,0.519-2.308,1.554
		c-0.599,1.036-0.897,2.259-0.897,3.672c0,0.989,0.149,1.907,0.449,2.755c0.896,2.449,2.488,4.463,4.773,6.039
		c2.286,1.578,4.904,2.366,7.853,2.366c4.528,0,8.086-1.483,10.671-4.45s4.327-7.816,5.224-14.55l0.705-5.228
		c1.239,0.143,2.265,0.53,3.076,1.166c0.813,0.637,1.635,1.72,2.468,3.25s1.892,3.849,3.173,6.957
		c1.752,4.332,3.632,7.521,5.641,9.569c2.008,2.048,4.593,3.072,7.756,3.072c2.862,0,5.34-0.742,7.435-2.226
		c1.084-0.768,2.161-1.705,3.233-2.808c0.239,0.64,0.518,1.235,0.837,1.784c1.26,2.166,3.279,3.249,6.055,3.248
		c3.673,0,7.627-2.848,11.856-8.547c0.216-0.275,0.398-0.586,0.558-0.921c0.228-0.307,0.473-0.601,0.694-0.913
		c1.302-1.836,2.617-4.143,3.941-6.922c0.599,0.754,1.238,1.637,1.923,2.648c0.683,1.014,1.25,2.061,1.698,3.143
		c0.448,1.084,0.693,2.237,0.736,3.461c-0.385-0.045-0.951-0.129-1.698-0.246c-0.748-0.117-1.399-0.178-1.954-0.178
		c-1.581,0-2.777,0.448-3.59,1.342c-0.813,0.896-1.218,1.955-1.218,3.179c0,1.413,0.587,2.685,1.763,3.813s2.873,1.695,5.092,1.696
		c2.35,0,4.38-0.801,6.089-2.401c2.861-0.095,5.266-0.672,7.211-1.73c1.047-0.57,2.123-1.421,3.226-2.531
		c0.084,0.136,0.147,0.278,0.237,0.411c1.132,1.672,2.766,2.991,4.903,3.955c2.136,0.965,4.656,1.448,7.563,1.448
		c3.717,0,7.061-0.825,10.03-2.473c2.351-1.303,4.394-2.996,6.142-5.067c0.149,0.365,0.297,0.731,0.46,1.077
		c1.815,3.839,4.604,5.757,8.364,5.757c2.734,0,5.18-0.8,7.338-2.401c1.198-0.889,2.343-1.931,3.442-3.097
		c0.797,1.33,1.774,2.48,2.968,3.414c1.771,1.39,3.919,2.084,6.442,2.082c2.563,0,4.902-0.788,7.018-2.366
		c2.115-1.576,3.792-3.766,5.031-6.568c1.239-2.8,1.857-5.99,1.857-9.57C354.122,52.131,353.674,49.705,352.776,47.444z
		 M318.198,36.285c0.919-4.896,2.008-8.91,3.27-12.042c1.26-3.131,2.402-4.696,3.43-4.696c1.195,0,1.794,1.648,1.794,4.943
		c0,7.676-3.312,16.553-9.934,26.628C316.8,46.127,317.279,41.184,318.198,36.285z M344.604,62.983
		c-1.004,1.743-2.233,2.614-3.684,2.614c-1.282,0-2.352-0.637-3.205-1.907c-0.855-1.271-1.281-3.249-1.281-5.933
		c0-3.392,0.501-5.944,1.506-7.664c1.002-1.719,2.275-2.578,3.813-2.578c1.194,0,2.221,0.66,3.075,1.978
		c0.854,1.319,1.282,3.273,1.282,5.862C346.111,58.699,345.608,61.241,344.604,62.983z"/>
	<polygon points="118.15,91.379 123.515,91.379 123.516,91.379 123.516,106.664 125.129,106.664 125.129,91.379 130.492,91.379 
		130.492,89.842 118.15,89.842 	"/>
	<path d="M133.911,96.498v-2.475h-1.481v12.641h1.549v-6.44c0-2.98,1.461-4.662,3.859-4.662c0.107,0,0.238,0.024,0.369,0.024v-1.658
		C136.093,93.928,134.632,94.816,133.911,96.498z"/>
	<path d="M145.336,93.926c-3.228,0-5.604,2.668-5.604,6.418s2.442,6.44,6.018,6.44c1.812,0,3.403-0.721,4.428-2.067l-0.872-1.104
		c-0.873,1.104-2.115,1.658-3.512,1.658c-2.508,0-4.339-1.754-4.514-4.397h9.595c0-0.192,0.022-0.385,0.022-0.529
		C150.896,96.547,148.563,93.926,145.336,93.926z M141.279,99.6c0.197-2.477,1.831-4.206,4.056-4.206
		c2.246,0,3.882,1.729,4.078,4.206H141.279z"/>
	<path d="M159.896,93.928c-1.984,0-3.532,0.889-4.361,2.427v-2.331h-1.481v12.641h1.548v-6.633c0-2.884,1.549-4.566,4.013-4.566
		c2.179,0,3.445,1.371,3.445,4.039v7.16h1.548v-7.33C164.607,95.705,162.688,93.928,159.896,93.928z"/>
	<path d="M173.303,93.926c-3.228,0-5.604,2.668-5.604,6.418s2.443,6.44,6.02,6.44c1.81,0,3.401-0.721,4.426-2.067l-0.872-1.104
		c-0.872,1.104-2.115,1.658-3.511,1.658c-2.507,0-4.339-1.754-4.515-4.397h9.596c0-0.192,0.021-0.385,0.021-0.529
		C178.863,96.547,176.53,93.926,173.303,93.926z M169.246,99.6c0.196-2.477,1.832-4.206,4.057-4.206
		c2.246,0,3.882,1.729,4.078,4.206H169.246z"/>
	<path d="M183.504,96.498v-2.475h-1.483v12.641h1.549v-6.44c0-2.98,1.461-4.662,3.859-4.662c0.108,0,0.239,0.024,0.37,0.024v-1.658
		C185.685,93.928,184.224,94.816,183.504,96.498z"/>
	<path d="M202.514,89.842h-5.713v16.822h1.613v-5.311h4.1c3.882,0,6.235-2.163,6.235-5.744
		C208.749,92.004,206.396,89.842,202.514,89.842z M202.471,99.791h-4.057v-8.41h4.057c3.053,0,4.666,1.537,4.666,4.229
		C207.137,98.254,205.523,99.791,202.471,99.791z"/>
	<path d="M216.289,93.926c-3.227,0-5.604,2.668-5.604,6.418s2.443,6.44,6.019,6.44c1.811,0,3.402-0.721,4.427-2.067l-0.872-1.104
		c-0.872,1.104-2.115,1.658-3.512,1.658c-2.507,0-4.339-1.754-4.514-4.397h9.595c0-0.192,0.022-0.385,0.022-0.529
		C221.851,96.547,219.518,93.926,216.289,93.926z M212.233,99.6c0.197-2.477,1.832-4.206,4.056-4.206
		c2.246,0,3.883,1.729,4.078,4.206H212.233z"/>
	<path d="M226.49,96.498v-2.475h-1.482v12.641h1.549v-6.44c0-2.98,1.461-4.662,3.858-4.662c0.108,0,0.239,0.024,0.37,0.024v-1.658
		C228.672,93.928,227.211,94.816,226.49,96.498z"/>
	<path d="M234.031,97.483c0-1.201,0.916-2.091,2.987-2.091c1.178,0,2.377,0.313,3.38,1.082l0.676-1.37
		c-0.959-0.722-2.574-1.179-4.056-1.179c-2.922,0-4.535,1.539-4.535,3.605c0,4.999,7.437,2.404,7.437,5.696
		c0,1.25-0.895,2.067-3.075,2.067c-1.613,0-3.161-0.625-4.077-1.418l-0.697,1.346c0.938,0.889,2.77,1.562,4.666,1.562
		c2.987,0,4.731-1.418,4.731-3.604C241.468,98.324,234.031,100.896,234.031,97.483z"/>
	<path d="M249.01,93.926c-3.359,0-5.845,2.668-5.845,6.418s2.486,6.44,5.845,6.44c3.357,0,5.821-2.69,5.821-6.44
		S252.368,93.926,249.01,93.926z M249.01,105.271c-2.442,0-4.273-1.972-4.273-4.927s1.831-4.926,4.273-4.926
		c2.441,0,4.252,1.97,4.252,4.926C253.262,103.299,251.451,105.271,249.01,105.271z"/>
	<path d="M263.831,93.928c-1.982,0-3.531,0.889-4.359,2.427v-2.331h-1.483v12.641h1.549v-6.633c0-2.884,1.549-4.566,4.013-4.566
		c2.18,0,3.444,1.371,3.444,4.039v7.16h1.548v-7.33C268.542,95.705,266.623,93.928,263.831,93.928z"/>
	<path d="M276.761,93.928c-1.811,0-3.511,0.625-4.666,1.707l0.696,1.272c0.938-0.913,2.334-1.489,3.816-1.489
		c2.137,0,3.248,1.176,3.248,3.34v0.769h-3.641c-3.293,0-4.428,1.634-4.428,3.581c0,2.188,1.593,3.677,4.188,3.677
		c1.896,0,3.249-0.793,3.946-2.091v1.971h1.482V98.83C281.403,95.562,279.725,93.928,276.761,93.928z M279.855,102.867
		c-0.611,1.658-1.897,2.572-3.641,2.572c-1.832,0-2.9-0.913-2.9-2.379c0-1.298,0.719-2.26,2.943-2.26h3.598V102.867z"/>
	<rect x="285.607" y="88.832" width="1.549" height="17.832"/>
	<path d="M297.313,93.928c-1.983,0-3.532,0.889-4.36,2.427v-2.331h-1.482v12.641h1.549v-6.633c0-2.884,1.548-4.566,4.012-4.566
		c2.18,0,3.445,1.371,3.445,4.039v7.16h1.548v-7.33C302.024,95.705,300.106,93.928,297.313,93.928z"/>
	<path d="M309.807,104.768l-4.317-10.743h-1.614l5.124,12.617l-0.501,1.226c-0.653,1.587-1.352,2.115-2.377,2.115
		c-0.828,0-1.526-0.336-2.093-0.961l-0.72,1.273c0.697,0.769,1.723,1.152,2.791,1.152c1.634,0,2.855-0.793,3.814-3.27l5.735-14.153
		h-1.526L309.807,104.768z"/>
	<polygon points="315.649,94.024 315.649,94.023 315.649,94.024 	"/>
	<polygon points="326.448,95.334 326.448,95.336 326.448,95.336 	"/>
	<path d="M340.905,95.285l0.955-4.543c0.552-2.611-1.119-5.176-3.731-5.727c-0.327-0.07-0.661-0.104-0.997-0.104h-7.824
		c-2.669,0-4.834,2.164-4.834,4.833c0,0.336,0.035,0.668,0.104,0.996l0.956,4.543c-4.054,4.245-3.898,10.975,0.348,15.028
		c0.418,0.399,0.868,0.765,1.35,1.093v0.003c0.074,0.05,0.16,0.074,0.249,0.074h11.479c0.091,0,0.176-0.024,0.249-0.074
		c4.851-3.31,6.099-9.923,2.79-14.772C341.67,96.156,341.307,95.705,340.905,95.285z M325.442,90.559
		c-0.246-1.165,0.046-2.378,0.798-3.301c0.749-0.926,1.878-1.463,3.066-1.461h7.824c2.182,0,3.946,1.769,3.946,3.949
		c0,0.272-0.026,0.545-0.084,0.813l-0.116,0.553h-1.969l0.159-0.964c0.202-1.207-0.612-2.348-1.819-2.548
		c-0.119-0.021-0.24-0.03-0.363-0.03h-7.332c-1.225,0-2.215,0.991-2.215,2.214c0,0.122,0.011,0.243,0.028,0.364l0.162,0.964h-1.971
		L325.442,90.559z M338.213,89.782c0,0.073-0.005,0.146-0.018,0.218l-0.497,2.984c-2.845-1.296-6.114-1.296-8.958,0l-0.498-2.98
		c-0.122-0.725,0.365-1.41,1.089-1.532c0.073-0.013,0.147-0.019,0.223-0.019h7.332C337.617,88.455,338.215,89.049,338.213,89.782z
		 M340.107,109.518c-0.396,0.396-0.828,0.757-1.287,1.08h-11.204c-4.403-3.094-5.465-9.17-2.37-13.574
		c0.321-0.458,0.685-0.889,1.079-1.286c0.106-0.104,0.153-0.256,0.123-0.401l-0.701-3.338h1.931l0.288,1.727
		c0.034,0.214,0.221,0.369,0.438,0.369c0.072,0,0.146-0.017,0.208-0.053c2.879-1.543,6.338-1.543,9.216,0
		c0.216,0.116,0.483,0.036,0.602-0.18c0.022-0.043,0.039-0.09,0.047-0.138l0.287-1.728h1.931l-0.701,3.336
		c-0.03,0.146,0.014,0.299,0.119,0.404C343.913,99.543,343.913,105.711,340.107,109.518z"/>
</g>
</svg>
